<?xml version="1.0" encoding="UTF-8"?>
<svg width="70px" height="57px" viewBox="0 0 70 57" version="1.1" xmlns="http://www.w3.org/2000/svg" xmlns:xlink="http://www.w3.org/1999/xlink">
    <!-- Generator: Sketch 53.2 (72643) - https://sketchapp.com -->
    <title>Combined Shape Copy 5</title>
    <desc>Created with Sketch.</desc>
    <g id="Brand-/-Logo" stroke="none" stroke-width="1" fill="none" fill-rule="evenodd">
        <g id="Group-2-Copy-18" transform="translate(-26.000000, -34.000000)" fill="#FFFFFF" fill-rule="nonzero">
            <path d="M88.3168082,46.9566053 C83.2445929,53.0689691 78.0649273,57.8892335 72.7498604,61.2006606 C69.4848248,63.234864 66.1963263,64.6757607 62.9028159,65.4810157 C59.2185608,75.3227884 48.1683291,83.309207 29.7796632,89.9058994 C28.3632364,90.414024 26.7858538,89.7237891 26.2564806,88.3642168 C25.7271074,87.0046445 26.4462064,85.490577 27.8626332,84.9824525 C43.1550704,79.4964915 52.5159103,73.4010175 56.5108025,66.234315 C53.1375105,66.1987409 49.7714825,65.4671089 46.4325681,63.9938812 C37.3568979,59.9894273 35.2245643,48.5353209 42.1340639,42.9595166 C49.1860127,37.268759 60.2040122,40.2078396 63.0352585,49.7077203 C64.0688703,53.1758708 64.4608687,56.4629651 64.2119599,59.5809408 C70.9225861,57.1194997 77.754542,51.427613 84.6445901,42.9441955 C82.5167968,43.4071514 80.3970645,43.6191639 78.2873339,43.5771924 C76.8448169,43.5484945 75.699932,42.4151094 75.730162,41.0457058 C75.760392,39.6763022 76.9542895,38.5894455 78.3968065,38.6181433 C82.6526982,38.7028112 87.055823,37.4765715 91.6367236,34.8915747 C93.6293753,33.7671237 96.0629331,35.4802493 95.5081953,37.6169333 C93.6069146,44.9400985 92.9486405,50.0863727 93.4637053,52.8593966 C93.7142508,54.2082919 92.7654797,55.4946005 91.3445657,55.7324471 C89.9236518,55.9702938 88.5686663,55.0696108 88.3181208,53.7207155 C87.9904116,51.9563832 87.9926159,49.7091258 88.3168082,46.9566053 Z M57.7705752,51.1533203 C56.0514302,45.3849516 49.7280201,43.6981652 45.6578716,46.9826797 C41.921763,49.9976319 43.1835583,56.7755289 48.7196516,59.2182169 C51.9291435,60.6343396 55.1805042,61.1743619 58.466058,60.8915596 C59.0424418,57.8403006 58.7989125,54.603773 57.7705752,51.1533203 Z" id="Combined-Shape-Copy-5" transform="translate(61.059286, 61.487603) rotate(-360.000000) translate(-61.059286, -61.487603) "></path>
        </g>
    </g>
</svg>